<?xml version="1.0" encoding="UTF-8" standalone="no"?>
<!DOCTYPE svg PUBLIC "-//W3C//DTD SVG 1.1//EN"
 "http://www.w3.org/Graphics/SVG/1.1/DTD/svg11.dtd">
<!-- Generated by graphviz version 2.38.0 (20140413.2041)
 -->
<!-- Title: controllers_diagram Pages: 1 -->
<svg width="511pt" height="567pt"
 viewBox="0.00 0.00 510.50 567.00" xmlns="http://www.w3.org/2000/svg" xmlns:xlink="http://www.w3.org/1999/xlink">
<g id="graph0" class="graph" transform="scale(1 1) rotate(0) translate(169 323.5)">
<title>controllers_diagram</title>
<polygon fill="white" stroke="none" points="-169,243.5 -169,-323.5 341.5,-323.5 341.5,243.5 -169,243.5"/>
<!-- _diagram_info -->
<g id="node1" class="node"><title>_diagram_info</title>
<text text-anchor="start" x="-112" y="-18.6" font-family="Times,serif" font-size="13.00">Controllers diagram</text>
<text text-anchor="start" x="-112" y="-4.6" font-family="Times,serif" font-size="13.00">Date: Jun 24 2015 &#45; 12:50</text>
<text text-anchor="start" x="-112" y="9.4" font-family="Times,serif" font-size="13.00">Migration version: 20150617001519</text>
<text text-anchor="start" x="-112" y="23.4" font-family="Times,serif" font-size="13.00">Generated by RailRoady 1.3.0</text>
<text text-anchor="start" x="-112" y="37.4" font-family="Times,serif" font-size="13.00">http://railroady.prestonlee.com</text>
</g>
<!-- ApplicationController -->
<g id="node2" class="node"><title>ApplicationController</title>
<path fill="none" stroke="black" d="M-153,164.5C-153,164.5 -41,164.5 -41,164.5 -35,164.5 -29,158.5 -29,152.5 -29,152.5 -29,83.5 -29,83.5 -29,77.5 -35,71.5 -41,71.5 -41,71.5 -153,71.5 -153,71.5 -159,71.5 -165,77.5 -165,83.5 -165,83.5 -165,152.5 -165,152.5 -165,158.5 -159,164.5 -153,164.5"/>
<text text-anchor="middle" x="-97" y="86.7" font-family="Times,serif" font-size="14.00">ApplicationController</text>
<polyline fill="none" stroke="black" points="-165,94.5 -29,94.5 "/>
<text text-anchor="start" x="-157" y="109.7" font-family="Times,serif" font-size="14.00">index</text>
<polyline fill="none" stroke="black" points="-165,117.5 -29,117.5 "/>
<polyline fill="none" stroke="black" points="-165,141.5 -29,141.5 "/>
<text text-anchor="start" x="-157" y="156.7" font-family="Times,serif" font-size="14.00">_layout</text>
</g>
<!-- Api::BuildingsController -->
<g id="node3" class="node"><title>Api::BuildingsController</title>
<path fill="none" stroke="black" d="M132,119C132,119 260,119 260,119 266,119 272,113 272,107 272,107 272,37 272,37 272,31 266,25 260,25 260,25 132,25 132,25 126,25 120,31 120,37 120,37 120,107 120,107 120,113 126,119 132,119"/>
<text text-anchor="middle" x="196" y="40.2" font-family="Times,serif" font-size="14.00">Api::BuildingsController</text>
<polyline fill="none" stroke="black" points="120,48 272,48 "/>
<polyline fill="none" stroke="black" points="120,72 272,72 "/>
<polyline fill="none" stroke="black" points="120,96 272,96 "/>
<text text-anchor="start" x="128" y="111.2" font-family="Times,serif" font-size="14.00">_layout</text>
</g>
<!-- Api::SnmpStatusesController -->
<g id="node4" class="node"><title>Api::SnmpStatusesController</title>
<path fill="none" stroke="black" d="M72,-60.5C72,-60.5 224,-60.5 224,-60.5 230,-60.5 236,-66.5 236,-72.5 236,-72.5 236,-171.5 236,-171.5 236,-177.5 230,-183.5 224,-183.5 224,-183.5 72,-183.5 72,-183.5 66,-183.5 60,-177.5 60,-171.5 60,-171.5 60,-72.5 60,-72.5 60,-66.5 66,-60.5 72,-60.5"/>
<text text-anchor="middle" x="148" y="-168.3" font-family="Times,serif" font-size="14.00">Api::SnmpStatusesController</text>
<polyline fill="none" stroke="black" points="60,-160.5 236,-160.5 "/>
<text text-anchor="start" x="68" y="-145.3" font-family="Times,serif" font-size="14.00">search</text>
<text text-anchor="start" x="68" y="-130.3" font-family="Times,serif" font-size="14.00">show</text>
<polyline fill="none" stroke="black" points="60,-122.5 236,-122.5 "/>
<polyline fill="none" stroke="black" points="60,-98.5 236,-98.5 "/>
<text text-anchor="start" x="68" y="-83.3" font-family="Times,serif" font-size="14.00">_layout</text>
<text text-anchor="start" x="68" y="-68.3" font-family="Times,serif" font-size="14.00">snmp_status_params</text>
</g>
<!-- Api::TilesController -->
<g id="node5" class="node"><title>Api::TilesController</title>
<path fill="none" stroke="black" d="M222.5,-211C222.5,-211 325.5,-211 325.5,-211 331.5,-211 337.5,-217 337.5,-223 337.5,-223 337.5,-307 337.5,-307 337.5,-313 331.5,-319 325.5,-319 325.5,-319 222.5,-319 222.5,-319 216.5,-319 210.5,-313 210.5,-307 210.5,-307 210.5,-223 210.5,-223 210.5,-217 216.5,-211 222.5,-211"/>
<text text-anchor="middle" x="274" y="-303.8" font-family="Times,serif" font-size="14.00">Api::TilesController</text>
<polyline fill="none" stroke="black" points="210.5,-296 337.5,-296 "/>
<text text-anchor="start" x="218.5" y="-280.8" font-family="Times,serif" font-size="14.00">index</text>
<text text-anchor="start" x="218.5" y="-265.8" font-family="Times,serif" font-size="14.00">tiles_params</text>
<polyline fill="none" stroke="black" points="210.5,-258 337.5,-258 "/>
<polyline fill="none" stroke="black" points="210.5,-234 337.5,-234 "/>
<text text-anchor="start" x="218.5" y="-218.8" font-family="Times,serif" font-size="14.00">_layout</text>
</g>
<!-- Api::ApsController -->
<g id="node6" class="node"><title>Api::ApsController</title>
<path fill="none" stroke="black" d="M-78,-91C-78,-91 20,-91 20,-91 26,-91 32,-97 32,-103 32,-103 32,-217 32,-217 32,-223 26,-229 20,-229 20,-229 -78,-229 -78,-229 -84,-229 -90,-223 -90,-217 -90,-217 -90,-103 -90,-103 -90,-97 -84,-91 -78,-91"/>
<text text-anchor="middle" x="-29" y="-213.8" font-family="Times,serif" font-size="14.00">Api::ApsController</text>
<polyline fill="none" stroke="black" points="-90,-206 32,-206 "/>
<text text-anchor="start" x="-82" y="-190.8" font-family="Times,serif" font-size="14.00">index</text>
<text text-anchor="start" x="-82" y="-175.8" font-family="Times,serif" font-size="14.00">show</text>
<text text-anchor="start" x="-82" y="-160.8" font-family="Times,serif" font-size="14.00">update</text>
<polyline fill="none" stroke="black" points="-90,-153 32,-153 "/>
<polyline fill="none" stroke="black" points="-90,-129 32,-129 "/>
<text text-anchor="start" x="-82" y="-113.8" font-family="Times,serif" font-size="14.00">_layout</text>
<text text-anchor="start" x="-82" y="-98.8" font-family="Times,serif" font-size="14.00">ap_params</text>
</g>
<!-- Api::CampiController -->
<g id="node7" class="node"><title>Api::CampiController</title>
<path fill="none" stroke="black" d="M12.5,239C12.5,239 125.5,239 125.5,239 131.5,239 137.5,233 137.5,227 137.5,227 137.5,157 137.5,157 137.5,151 131.5,145 125.5,145 125.5,145 12.5,145 12.5,145 6.5,145 0.5,151 0.5,157 0.5,157 0.5,227 0.5,227 0.5,233 6.5,239 12.5,239"/>
<text text-anchor="middle" x="69" y="160.2" font-family="Times,serif" font-size="14.00">Api::CampiController</text>
<polyline fill="none" stroke="black" points="0.5,168 137.5,168 "/>
<polyline fill="none" stroke="black" points="0.5,192 137.5,192 "/>
<polyline fill="none" stroke="black" points="0.5,216 137.5,216 "/>
<text text-anchor="start" x="8.5" y="231.2" font-family="Times,serif" font-size="14.00">_layout</text>
</g>
</g>
</svg>
