<?xml version="1.0" encoding="UTF-8" standalone="no"?>
<!DOCTYPE svg PUBLIC "-//W3C//DTD SVG 1.1//EN"
 "http://www.w3.org/Graphics/SVG/1.1/DTD/svg11.dtd">
<!-- Generated by graphviz version 2.38.0 (20140413.2041)
 -->
<!-- Title: models_diagram Pages: 1 -->
<svg width="1016pt" height="769pt"
 viewBox="0.00 0.00 1015.50 769.00" xmlns="http://www.w3.org/2000/svg" xmlns:xlink="http://www.w3.org/1999/xlink">
<g id="graph0" class="graph" transform="scale(1 1) rotate(0) translate(4 765)">
<title>models_diagram</title>
<polygon fill="white" stroke="none" points="-4,4 -4,-765 1011.5,-765 1011.5,4 -4,4"/>
<!-- _diagram_info -->
<g id="node1" class="node"><title>_diagram_info</title>
<text text-anchor="start" x="8" y="-739.6" font-family="Times,serif" font-size="13.00">Models diagram</text>
<text text-anchor="start" x="8" y="-725.6" font-family="Times,serif" font-size="13.00">Date: Jun 24 2015 &#45; 12:50</text>
<text text-anchor="start" x="8" y="-711.6" font-family="Times,serif" font-size="13.00">Migration version: 20150617001519</text>
<text text-anchor="start" x="8" y="-697.6" font-family="Times,serif" font-size="13.00">Generated by RailRoady 1.3.0</text>
<text text-anchor="start" x="8" y="-683.6" font-family="Times,serif" font-size="13.00">http://railroady.prestonlee.com</text>
</g>
<!-- SnmpStatus -->
<g id="node2" class="node"><title>SnmpStatus</title>
<polygon fill="none" stroke="black" points="232,-692 232,-738 314,-738 314,-692 232,-692"/>
<text text-anchor="middle" x="273" y="-722.8" font-family="Times,serif" font-size="14.00">SnmpStatus</text>
<polyline fill="none" stroke="black" points="232,-715 314,-715 "/>
<text text-anchor="middle" x="273" y="-699.8" font-family="Times,serif" font-size="14.00"> </text>
</g>
<!-- Floor -->
<g id="node3" class="node"><title>Floor</title>
<path fill="none" stroke="black" d="M344.5,-143.5C344.5,-143.5 451.5,-143.5 451.5,-143.5 457.5,-143.5 463.5,-149.5 463.5,-155.5 463.5,-155.5 463.5,-237.5 463.5,-237.5 463.5,-243.5 457.5,-249.5 451.5,-249.5 451.5,-249.5 344.5,-249.5 344.5,-249.5 338.5,-249.5 332.5,-243.5 332.5,-237.5 332.5,-237.5 332.5,-155.5 332.5,-155.5 332.5,-149.5 338.5,-143.5 344.5,-143.5"/>
<text text-anchor="middle" x="398" y="-234.3" font-family="Times,serif" font-size="14.00">Floor</text>
<polyline fill="none" stroke="black" points="332.5,-226.5 463.5,-226.5 "/>
<text text-anchor="start" x="340.5" y="-211.3" font-family="Times,serif" font-size="14.00">id :integer</text>
<text text-anchor="start" x="340.5" y="-196.3" font-family="Times,serif" font-size="14.00">number :string</text>
<text text-anchor="start" x="340.5" y="-181.3" font-family="Times,serif" font-size="14.00">building_id :integer</text>
<text text-anchor="start" x="340.5" y="-166.3" font-family="Times,serif" font-size="14.00">created_at :datetime</text>
<text text-anchor="start" x="340.5" y="-151.3" font-family="Times,serif" font-size="14.00">updated_at :datetime</text>
</g>
<!-- Location -->
<g id="node9" class="node"><title>Location</title>
<path fill="none" stroke="black" d="M344.5,-0.5C344.5,-0.5 451.5,-0.5 451.5,-0.5 457.5,-0.5 463.5,-6.5 463.5,-12.5 463.5,-12.5 463.5,-94.5 463.5,-94.5 463.5,-100.5 457.5,-106.5 451.5,-106.5 451.5,-106.5 344.5,-106.5 344.5,-106.5 338.5,-106.5 332.5,-100.5 332.5,-94.5 332.5,-94.5 332.5,-12.5 332.5,-12.5 332.5,-6.5 338.5,-0.5 344.5,-0.5"/>
<text text-anchor="middle" x="398" y="-91.3" font-family="Times,serif" font-size="14.00">Location</text>
<polyline fill="none" stroke="black" points="332.5,-83.5 463.5,-83.5 "/>
<text text-anchor="start" x="340.5" y="-68.3" font-family="Times,serif" font-size="14.00">id :integer</text>
<text text-anchor="start" x="340.5" y="-53.3" font-family="Times,serif" font-size="14.00">name :string</text>
<text text-anchor="start" x="340.5" y="-38.3" font-family="Times,serif" font-size="14.00">created_at :datetime</text>
<text text-anchor="start" x="340.5" y="-23.3" font-family="Times,serif" font-size="14.00">updated_at :datetime</text>
<text text-anchor="start" x="340.5" y="-8.3" font-family="Times,serif" font-size="14.00">floor_id :integer</text>
</g>
<!-- Floor&#45;&gt;Location -->
<g id="edge1" class="edge"><title>Floor&#45;&gt;Location</title>
<path fill="none" stroke="#ebbff3" d="M398,-135.194C398,-129.154 398,-123.013 398,-116.952"/>
<ellipse fill="none" stroke="#ebbff3" cx="398" cy="-139.397" rx="4" ry="4"/>
<polygon fill="#ebbff3" stroke="#ebbff3" points="398,-116.859 402.5,-106.859 398,-111.859 398,-106.859 398,-106.859 398,-106.859 398,-111.859 393.5,-106.859 398,-116.859 398,-116.859"/>
</g>
<!-- TileBuilder -->
<g id="node4" class="node"><title>TileBuilder</title>
<polygon fill="none" stroke="black" points="481.5,-692 481.5,-738 560.5,-738 560.5,-692 481.5,-692"/>
<text text-anchor="middle" x="521" y="-722.8" font-family="Times,serif" font-size="14.00">TileBuilder</text>
<polyline fill="none" stroke="black" points="481.5,-715 560.5,-715 "/>
<text text-anchor="middle" x="521" y="-699.8" font-family="Times,serif" font-size="14.00"> </text>
</g>
<!-- Ap -->
<g id="node5" class="node"><title>Ap</title>
<path fill="none" stroke="black" d="M726,-286.5C726,-286.5 860,-286.5 860,-286.5 866,-286.5 872,-292.5 872,-298.5 872,-298.5 872,-620.5 872,-620.5 872,-626.5 866,-632.5 860,-632.5 860,-632.5 726,-632.5 726,-632.5 720,-632.5 714,-626.5 714,-620.5 714,-620.5 714,-298.5 714,-298.5 714,-292.5 720,-286.5 726,-286.5"/>
<text text-anchor="middle" x="793" y="-617.3" font-family="Times,serif" font-size="14.00">Ap</text>
<polyline fill="none" stroke="black" points="714,-609.5 872,-609.5 "/>
<text text-anchor="start" x="722" y="-594.3" font-family="Times,serif" font-size="14.00">id :integer</text>
<text text-anchor="start" x="722" y="-579.3" font-family="Times,serif" font-size="14.00">name :string</text>
<text text-anchor="start" x="722" y="-564.3" font-family="Times,serif" font-size="14.00">wan_mac_address :string</text>
<text text-anchor="start" x="722" y="-549.3" font-family="Times,serif" font-size="14.00">wlan_mac_address :string</text>
<text text-anchor="start" x="722" y="-534.3" font-family="Times,serif" font-size="14.00">switch_ip :string</text>
<text text-anchor="start" x="722" y="-519.3" font-family="Times,serif" font-size="14.00">port :integer</text>
<text text-anchor="start" x="722" y="-504.3" font-family="Times,serif" font-size="14.00">socket :string</text>
<text text-anchor="start" x="722" y="-489.3" font-family="Times,serif" font-size="14.00">panel_port :string</text>
<text text-anchor="start" x="722" y="-474.3" font-family="Times,serif" font-size="14.00">ip :string</text>
<text text-anchor="start" x="722" y="-459.3" font-family="Times,serif" font-size="14.00">comments :text</text>
<text text-anchor="start" x="722" y="-444.3" font-family="Times,serif" font-size="14.00">validated :boolean</text>
<text text-anchor="start" x="722" y="-429.3" font-family="Times,serif" font-size="14.00">syslocation :string</text>
<text text-anchor="start" x="722" y="-414.3" font-family="Times,serif" font-size="14.00">latitude :float</text>
<text text-anchor="start" x="722" y="-399.3" font-family="Times,serif" font-size="14.00">longitude :float</text>
<text text-anchor="start" x="722" y="-384.3" font-family="Times,serif" font-size="14.00">height :float</text>
<text text-anchor="start" x="722" y="-369.3" font-family="Times,serif" font-size="14.00">location_id :integer</text>
<text text-anchor="start" x="722" y="-354.3" font-family="Times,serif" font-size="14.00">ap_model_id :integer</text>
<text text-anchor="start" x="722" y="-339.3" font-family="Times,serif" font-size="14.00">ap_status_id :integer</text>
<text text-anchor="start" x="722" y="-324.3" font-family="Times,serif" font-size="14.00">control_region_id :integer</text>
<text text-anchor="start" x="722" y="-309.3" font-family="Times,serif" font-size="14.00">lat :float</text>
<text text-anchor="start" x="722" y="-294.3" font-family="Times,serif" font-size="14.00">lng :float</text>
</g>
<!-- ApModel -->
<g id="node6" class="node"><title>ApModel</title>
<path fill="none" stroke="black" d="M590.5,-669.5C590.5,-669.5 697.5,-669.5 697.5,-669.5 703.5,-669.5 709.5,-675.5 709.5,-681.5 709.5,-681.5 709.5,-748.5 709.5,-748.5 709.5,-754.5 703.5,-760.5 697.5,-760.5 697.5,-760.5 590.5,-760.5 590.5,-760.5 584.5,-760.5 578.5,-754.5 578.5,-748.5 578.5,-748.5 578.5,-681.5 578.5,-681.5 578.5,-675.5 584.5,-669.5 590.5,-669.5"/>
<text text-anchor="middle" x="644" y="-745.3" font-family="Times,serif" font-size="14.00">ApModel</text>
<polyline fill="none" stroke="black" points="578.5,-737.5 709.5,-737.5 "/>
<text text-anchor="start" x="586.5" y="-722.3" font-family="Times,serif" font-size="14.00">id :integer</text>
<text text-anchor="start" x="586.5" y="-707.3" font-family="Times,serif" font-size="14.00">name :string</text>
<text text-anchor="start" x="586.5" y="-692.3" font-family="Times,serif" font-size="14.00">created_at :datetime</text>
<text text-anchor="start" x="586.5" y="-677.3" font-family="Times,serif" font-size="14.00">updated_at :datetime</text>
</g>
<!-- ApModel&#45;&gt;Ap -->
<g id="edge2" class="edge"><title>ApModel&#45;&gt;Ap</title>
<path fill="none" stroke="#77793c" d="M674.46,-662.177C684.644,-644.851 696.541,-624.611 708.794,-603.764"/>
<ellipse fill="none" stroke="#77793c" cx="672.322" cy="-665.814" rx="4.00002" ry="4.00002"/>
<polygon fill="#77793c" stroke="#77793c" points="708.808,-603.74 717.754,-597.399 711.341,-599.43 713.875,-595.119 713.875,-595.119 713.875,-595.119 711.341,-599.43 709.995,-592.839 708.808,-603.74 708.808,-603.74"/>
</g>
<!-- ControlRegion -->
<g id="node7" class="node"><title>ControlRegion</title>
<path fill="none" stroke="black" d="M739.5,-669.5C739.5,-669.5 846.5,-669.5 846.5,-669.5 852.5,-669.5 858.5,-675.5 858.5,-681.5 858.5,-681.5 858.5,-748.5 858.5,-748.5 858.5,-754.5 852.5,-760.5 846.5,-760.5 846.5,-760.5 739.5,-760.5 739.5,-760.5 733.5,-760.5 727.5,-754.5 727.5,-748.5 727.5,-748.5 727.5,-681.5 727.5,-681.5 727.5,-675.5 733.5,-669.5 739.5,-669.5"/>
<text text-anchor="middle" x="793" y="-745.3" font-family="Times,serif" font-size="14.00">ControlRegion</text>
<polyline fill="none" stroke="black" points="727.5,-737.5 858.5,-737.5 "/>
<text text-anchor="start" x="735.5" y="-722.3" font-family="Times,serif" font-size="14.00">id :integer</text>
<text text-anchor="start" x="735.5" y="-707.3" font-family="Times,serif" font-size="14.00">name :string</text>
<text text-anchor="start" x="735.5" y="-692.3" font-family="Times,serif" font-size="14.00">created_at :datetime</text>
<text text-anchor="start" x="735.5" y="-677.3" font-family="Times,serif" font-size="14.00">updated_at :datetime</text>
</g>
<!-- ControlRegion&#45;&gt;Ap -->
<g id="edge3" class="edge"><title>ControlRegion&#45;&gt;Ap</title>
<path fill="none" stroke="#6990f7" d="M793,-661.014C793,-655.207 793,-649.083 793,-642.728"/>
<ellipse fill="none" stroke="#6990f7" cx="793" cy="-665.263" rx="4" ry="4"/>
<polygon fill="#6990f7" stroke="#6990f7" points="793,-642.561 797.5,-632.561 793,-637.561 793,-632.561 793,-632.561 793,-632.561 793,-637.561 788.5,-632.562 793,-642.561 793,-642.561"/>
</g>
<!-- Building -->
<g id="node8" class="node"><title>Building</title>
<path fill="none" stroke="black" d="M344.5,-406.5C344.5,-406.5 451.5,-406.5 451.5,-406.5 457.5,-406.5 463.5,-412.5 463.5,-418.5 463.5,-418.5 463.5,-500.5 463.5,-500.5 463.5,-506.5 457.5,-512.5 451.5,-512.5 451.5,-512.5 344.5,-512.5 344.5,-512.5 338.5,-512.5 332.5,-506.5 332.5,-500.5 332.5,-500.5 332.5,-418.5 332.5,-418.5 332.5,-412.5 338.5,-406.5 344.5,-406.5"/>
<text text-anchor="middle" x="398" y="-497.3" font-family="Times,serif" font-size="14.00">Building</text>
<polyline fill="none" stroke="black" points="332.5,-489.5 463.5,-489.5 "/>
<text text-anchor="start" x="340.5" y="-474.3" font-family="Times,serif" font-size="14.00">id :integer</text>
<text text-anchor="start" x="340.5" y="-459.3" font-family="Times,serif" font-size="14.00">name :string</text>
<text text-anchor="start" x="340.5" y="-444.3" font-family="Times,serif" font-size="14.00">campus_id :integer</text>
<text text-anchor="start" x="340.5" y="-429.3" font-family="Times,serif" font-size="14.00">created_at :datetime</text>
<text text-anchor="start" x="340.5" y="-414.3" font-family="Times,serif" font-size="14.00">updated_at :datetime</text>
</g>
<!-- Building&#45;&gt;Floor -->
<g id="edge4" class="edge"><title>Building&#45;&gt;Floor</title>
<path fill="none" stroke="#5af672" d="M398,-398.109C398,-356.583 398,-301.589 398,-259.683"/>
<ellipse fill="none" stroke="#5af672" cx="398" cy="-402.31" rx="4" ry="4"/>
<polygon fill="#5af672" stroke="#5af672" points="398,-259.599 402.5,-249.599 398,-254.599 398,-249.599 398,-249.599 398,-249.599 398,-254.599 393.5,-249.6 398,-259.599 398,-259.599"/>
</g>
<!-- Campus -->
<g id="node10" class="node"><title>Campus</title>
<path fill="none" stroke="black" d="M344.5,-669.5C344.5,-669.5 451.5,-669.5 451.5,-669.5 457.5,-669.5 463.5,-675.5 463.5,-681.5 463.5,-681.5 463.5,-748.5 463.5,-748.5 463.5,-754.5 457.5,-760.5 451.5,-760.5 451.5,-760.5 344.5,-760.5 344.5,-760.5 338.5,-760.5 332.5,-754.5 332.5,-748.5 332.5,-748.5 332.5,-681.5 332.5,-681.5 332.5,-675.5 338.5,-669.5 344.5,-669.5"/>
<text text-anchor="middle" x="398" y="-745.3" font-family="Times,serif" font-size="14.00">Campus</text>
<polyline fill="none" stroke="black" points="332.5,-737.5 463.5,-737.5 "/>
<text text-anchor="start" x="340.5" y="-722.3" font-family="Times,serif" font-size="14.00">id :integer</text>
<text text-anchor="start" x="340.5" y="-707.3" font-family="Times,serif" font-size="14.00">name :string</text>
<text text-anchor="start" x="340.5" y="-692.3" font-family="Times,serif" font-size="14.00">created_at :datetime</text>
<text text-anchor="start" x="340.5" y="-677.3" font-family="Times,serif" font-size="14.00">updated_at :datetime</text>
</g>
<!-- Campus&#45;&gt;Building -->
<g id="edge5" class="edge"><title>Campus&#45;&gt;Building</title>
<path fill="none" stroke="#aed4bd" d="M398,-661.069C398,-620.808 398,-565.293 398,-522.875"/>
<ellipse fill="none" stroke="#aed4bd" cx="398" cy="-665.263" rx="4" ry="4"/>
<polygon fill="#aed4bd" stroke="#aed4bd" points="398,-522.665 402.5,-512.665 398,-517.665 398,-512.665 398,-512.665 398,-512.665 398,-517.665 393.5,-512.665 398,-522.665 398,-522.665"/>
</g>
<!-- ApStatus -->
<g id="node11" class="node"><title>ApStatus</title>
<path fill="none" stroke="black" d="M888.5,-669.5C888.5,-669.5 995.5,-669.5 995.5,-669.5 1001.5,-669.5 1007.5,-675.5 1007.5,-681.5 1007.5,-681.5 1007.5,-748.5 1007.5,-748.5 1007.5,-754.5 1001.5,-760.5 995.5,-760.5 995.5,-760.5 888.5,-760.5 888.5,-760.5 882.5,-760.5 876.5,-754.5 876.5,-748.5 876.5,-748.5 876.5,-681.5 876.5,-681.5 876.5,-675.5 882.5,-669.5 888.5,-669.5"/>
<text text-anchor="middle" x="942" y="-745.3" font-family="Times,serif" font-size="14.00">ApStatus</text>
<polyline fill="none" stroke="black" points="876.5,-737.5 1007.5,-737.5 "/>
<text text-anchor="start" x="884.5" y="-722.3" font-family="Times,serif" font-size="14.00">id :integer</text>
<text text-anchor="start" x="884.5" y="-707.3" font-family="Times,serif" font-size="14.00">name :string</text>
<text text-anchor="start" x="884.5" y="-692.3" font-family="Times,serif" font-size="14.00">created_at :datetime</text>
<text text-anchor="start" x="884.5" y="-677.3" font-family="Times,serif" font-size="14.00">updated_at :datetime</text>
</g>
<!-- ApStatus&#45;&gt;Ap -->
<g id="edge6" class="edge"><title>ApStatus&#45;&gt;Ap</title>
<path fill="none" stroke="#3861b3" d="M911.54,-662.177C901.356,-644.851 889.459,-624.611 877.206,-603.764"/>
<ellipse fill="none" stroke="#3861b3" cx="913.678" cy="-665.814" rx="4.00002" ry="4.00002"/>
<polygon fill="#3861b3" stroke="#3861b3" points="877.192,-603.74 876.005,-592.839 874.659,-599.43 872.125,-595.119 872.125,-595.119 872.125,-595.119 874.659,-599.43 868.246,-597.399 877.192,-603.74 877.192,-603.74"/>
</g>
</g>
</svg>
