<?xml version="1.0" encoding="UTF-8" standalone="no"?>
<!DOCTYPE svg PUBLIC "-//W3C//DTD SVG 1.1//EN"
 "http://www.w3.org/Graphics/SVG/1.1/DTD/svg11.dtd">
<!-- Generated by graphviz version 2.38.0 (20140413.2041)
 -->
<!-- Title: models_diagram Pages: 1 -->
<svg width="873pt" height="302pt"
 viewBox="0.00 0.00 872.90 302.00" xmlns="http://www.w3.org/2000/svg" xmlns:xlink="http://www.w3.org/1999/xlink">
<g id="graph0" class="graph" transform="scale(1 1) rotate(0) translate(4 298)">
<title>models_diagram</title>
<polygon fill="white" stroke="none" points="-4,4 -4,-298 868.896,-298 868.896,4 -4,4"/>
<!-- _diagram_info -->
<g id="node1" class="node"><title>_diagram_info</title>
<text text-anchor="start" x="8" y="-279.6" font-family="Times,serif" font-size="13.00">Models diagram</text>
<text text-anchor="start" x="8" y="-265.6" font-family="Times,serif" font-size="13.00">Date: Jun 24 2015 &#45; 12:50</text>
<text text-anchor="start" x="8" y="-251.6" font-family="Times,serif" font-size="13.00">Migration version: 20150617001519</text>
<text text-anchor="start" x="8" y="-237.6" font-family="Times,serif" font-size="13.00">Generated by RailRoady 1.3.0</text>
<text text-anchor="start" x="8" y="-223.6" font-family="Times,serif" font-size="13.00">http://railroady.prestonlee.com</text>
</g>
<!-- SnmpStatus -->
<g id="node2" class="node"><title>SnmpStatus</title>
<polygon fill="none" stroke="black" points="314,-273 232,-273 232,-237 314,-237 314,-273"/>
<text text-anchor="middle" x="273" y="-251.3" font-family="Times,serif" font-size="14.00">SnmpStatus</text>
</g>
<!-- Floor -->
<g id="node3" class="node"><title>Floor</title>
<ellipse fill="none" stroke="black" cx="372" cy="-90" rx="29.795" ry="18"/>
<text text-anchor="middle" x="372" y="-86.3" font-family="Times,serif" font-size="14.00">Floor</text>
</g>
<!-- Location -->
<g id="node9" class="node"><title>Location</title>
<ellipse fill="none" stroke="black" cx="372" cy="-18" rx="42.4939" ry="18"/>
<text text-anchor="middle" x="372" y="-14.3" font-family="Times,serif" font-size="14.00">Location</text>
</g>
<!-- Floor&#45;&gt;Location -->
<g id="edge1" class="edge"><title>Floor&#45;&gt;Location</title>
<path fill="none" stroke="#ea9822" d="M372,-63.6398C372,-58.0629 372,-52.1319 372,-46.4761"/>
<ellipse fill="none" stroke="#ea9822" cx="372" cy="-67.6966" rx="4" ry="4"/>
<polygon fill="#ea9822" stroke="#ea9822" points="372,-46.1043 376.5,-36.1043 372,-41.1043 372,-36.1043 372,-36.1043 372,-36.1043 372,-41.1043 367.5,-36.1044 372,-46.1043 372,-46.1043"/>
</g>
<!-- TileBuilder -->
<g id="node4" class="node"><title>TileBuilder</title>
<polygon fill="none" stroke="black" points="509.5,-273 430.5,-273 430.5,-237 509.5,-237 509.5,-273"/>
<text text-anchor="middle" x="470" y="-251.3" font-family="Times,serif" font-size="14.00">TileBuilder</text>
</g>
<!-- Ap -->
<g id="node5" class="node"><title>Ap</title>
<ellipse fill="none" stroke="black" cx="698" cy="-162" rx="27" ry="18"/>
<text text-anchor="middle" x="698" y="-158.3" font-family="Times,serif" font-size="14.00">Ap</text>
</g>
<!-- ApModel -->
<g id="node6" class="node"><title>ApModel</title>
<ellipse fill="none" stroke="black" cx="572" cy="-255" rx="44.6926" ry="18"/>
<text text-anchor="middle" x="572" y="-251.3" font-family="Times,serif" font-size="14.00">ApModel</text>
</g>
<!-- ApModel&#45;&gt;Ap -->
<g id="edge2" class="edge"><title>ApModel&#45;&gt;Ap</title>
<path fill="none" stroke="#d33c68" d="M599.441,-234.182C621.069,-218.562 651.01,-196.937 672.202,-181.632"/>
<ellipse fill="none" stroke="#d33c68" cx="596.049" cy="-236.631" rx="4.00002" ry="4.00002"/>
<polygon fill="#d33c68" stroke="#d33c68" points="672.311,-181.553 683.053,-179.346 676.365,-178.626 680.418,-175.698 680.418,-175.698 680.418,-175.698 676.365,-178.626 677.783,-172.05 672.311,-181.553 672.311,-181.553"/>
</g>
<!-- ControlRegion -->
<g id="node7" class="node"><title>ControlRegion</title>
<ellipse fill="none" stroke="black" cx="698" cy="-255" rx="63.0888" ry="18"/>
<text text-anchor="middle" x="698" y="-251.3" font-family="Times,serif" font-size="14.00">ControlRegion</text>
</g>
<!-- ControlRegion&#45;&gt;Ap -->
<g id="edge3" class="edge"><title>ControlRegion&#45;&gt;Ap</title>
<path fill="none" stroke="#f8d4b7" d="M698,-228.729C698,-216.725 698,-202.362 698,-190.129"/>
<ellipse fill="none" stroke="#f8d4b7" cx="698" cy="-232.884" rx="4" ry="4"/>
<polygon fill="#f8d4b7" stroke="#f8d4b7" points="698,-190.04 702.5,-180.04 698,-185.04 698,-180.04 698,-180.04 698,-180.04 698,-185.04 693.5,-180.04 698,-190.04 698,-190.04"/>
</g>
<!-- Building -->
<g id="node8" class="node"><title>Building</title>
<ellipse fill="none" stroke="black" cx="372" cy="-162" rx="41.6928" ry="18"/>
<text text-anchor="middle" x="372" y="-158.3" font-family="Times,serif" font-size="14.00">Building</text>
</g>
<!-- Building&#45;&gt;Floor -->
<g id="edge4" class="edge"><title>Building&#45;&gt;Floor</title>
<path fill="none" stroke="#b08a19" d="M372,-135.64C372,-130.063 372,-124.132 372,-118.476"/>
<ellipse fill="none" stroke="#b08a19" cx="372" cy="-139.697" rx="4" ry="4"/>
<polygon fill="#b08a19" stroke="#b08a19" points="372,-118.104 376.5,-108.104 372,-113.104 372,-108.104 372,-108.104 372,-108.104 372,-113.104 367.5,-108.104 372,-118.104 372,-118.104"/>
</g>
<!-- Campus -->
<g id="node10" class="node"><title>Campus</title>
<ellipse fill="none" stroke="black" cx="372" cy="-255" rx="40.0939" ry="18"/>
<text text-anchor="middle" x="372" y="-251.3" font-family="Times,serif" font-size="14.00">Campus</text>
</g>
<!-- Campus&#45;&gt;Building -->
<g id="edge5" class="edge"><title>Campus&#45;&gt;Building</title>
<path fill="none" stroke="#3c7da8" d="M372,-228.729C372,-216.725 372,-202.362 372,-190.129"/>
<ellipse fill="none" stroke="#3c7da8" cx="372" cy="-232.884" rx="4" ry="4"/>
<polygon fill="#3c7da8" stroke="#3c7da8" points="372,-190.04 376.5,-180.04 372,-185.04 372,-180.04 372,-180.04 372,-180.04 372,-185.04 367.5,-180.04 372,-190.04 372,-190.04"/>
</g>
<!-- ApStatus -->
<g id="node11" class="node"><title>ApStatus</title>
<ellipse fill="none" stroke="black" cx="822" cy="-255" rx="42.7926" ry="18"/>
<text text-anchor="middle" x="822" y="-251.3" font-family="Times,serif" font-size="14.00">ApStatus</text>
</g>
<!-- ApStatus&#45;&gt;Ap -->
<g id="edge6" class="edge"><title>ApStatus&#45;&gt;Ap</title>
<path fill="none" stroke="#48ae37" d="M795.034,-234.21C773.881,-218.687 744.629,-197.22 723.785,-181.923"/>
<ellipse fill="none" stroke="#48ae37" cx="798.299" cy="-236.607" rx="4.00002" ry="4.00002"/>
<polygon fill="#48ae37" stroke="#48ae37" points="723.754,-181.9 718.354,-172.356 719.723,-178.942 715.692,-175.984 715.692,-175.984 715.692,-175.984 719.723,-178.942 713.03,-179.612 723.754,-181.9 723.754,-181.9"/>
</g>
</g>
</svg>
